<svg width="103" height="37" viewBox="0 0 103 37" fill="none" xmlns="http://www.w3.org/2000/svg">
<path d="M13.9918 1.44019V7.70147C12.9219 7.09911 11.636 6.79355 10.1636 6.79355C7.31926 6.79355 4.74754 7.88547 2.924 9.86779C1.01102 11.9476 0 14.8521 0 18.2691C0 23.3092 2.7146 28.3953 8.77963 28.3953C10.7919 28.3953 12.7823 27.3702 13.9918 25.7471V27.8401H19.7907V0H18.4383L13.9918 1.44019ZM6.01813 16.8004C6.01813 12.3408 7.6999 9.34428 10.2018 9.34428C12.7037 9.34428 13.9907 11.3726 13.9907 15.3712V23.7506C13.0091 24.5994 12.0504 24.9312 10.5966 24.9312C9.14281 24.9312 7.92566 24.0978 7.11204 22.4528C6.4064 21.0257 6.01704 19.0182 6.01704 16.8004H6.01813Z" fill="#003A30"/>
<path d="M76.4113 1.44019V7.70147C75.3321 7.09911 74.0351 6.79355 72.5499 6.79355C69.6808 6.79355 67.0867 7.88547 65.2473 9.86779C63.3177 11.9476 62.2979 14.8521 62.2979 18.2691C62.2979 23.3092 65.0361 28.3953 71.1538 28.3953C73.1836 28.3953 75.1913 27.3702 76.4113 25.7471V27.8401H82.2607V0H80.8965L76.4113 1.44019ZM68.3694 16.8004C68.3694 12.3408 70.0658 9.34428 72.5895 9.34428C75.1132 9.34428 76.4113 11.3726 76.4113 15.3712V23.7506C75.4212 24.5994 74.4542 24.9312 72.9877 24.9312C71.5213 24.9312 70.2935 24.0978 69.4729 22.4528C68.7611 21.0257 68.3683 19.0182 68.3683 16.8004H68.3694Z" fill="#003A30"/>
<path d="M54.117 6.88379C51.8656 6.88379 49.8705 7.89657 47.8644 10.0642V6.88379H46.4786L41.9902 8.32048V27.8791H47.838L47.8655 12.8567C49.2359 11.5096 50.5128 10.8541 51.7666 10.8541C54.1994 10.8541 54.7098 12.7671 54.7098 14.3721V27.8791H60.5763L60.54 13.8181C60.54 9.41193 58.1984 6.88379 54.117 6.88379Z" fill="#003A30"/>
<path d="M101.363 6.88488L96.9342 8.32107L96.9506 21.1878C95.579 22.5792 94.3353 23.2279 93.038 23.2279C90.6226 23.2279 90.1148 21.3156 90.1148 19.7112L90.1552 6.88379H88.7771L84.3252 8.31998V20.2649C84.3252 24.6707 86.65 27.1968 90.7023 27.1968C92.9212 27.1968 94.9009 26.1866 96.9058 24.0241V29.1933C96.9058 32.5342 95.5408 34.6923 93.4268 34.6923C91.6501 34.6923 90.5025 33.5751 90.5025 31.8462C90.5025 31.1297 90.7077 30.4111 91.114 29.711L91.2155 29.5363L86.1848 27.8871L86.1193 28.004C85.5984 28.9246 85.3462 29.7929 85.3462 30.659C85.3462 32.3791 86.258 33.977 87.9145 35.1576C89.5808 36.3459 91.862 37.0001 94.3396 37.0001C99.5986 37.0001 102.74 34.0818 102.74 29.1933V6.88488H101.365H101.363Z" fill="#003A30"/>
<path d="M39.5811 14.6757C39.5811 9.79648 36.4393 6.88379 31.1751 6.88379C28.6955 6.88379 26.4126 7.53675 24.745 8.72275C23.0871 9.90113 22.1746 11.4959 22.1746 13.2128C22.1746 14.0761 22.4282 14.9427 22.9484 15.8628L23.0139 15.9794L28.0486 14.3334L27.9469 14.159C27.5404 13.4591 27.3349 12.7419 27.3349 12.0279C27.3349 10.3023 28.4835 9.18713 30.2615 9.18713C32.3761 9.18713 33.7433 11.3411 33.7433 14.6757V15.2556L31.7314 15.7014C29.4572 16.2138 26.8705 16.8504 24.9701 17.9274C22.8751 19.1145 21.8555 20.6886 21.8555 22.7379C21.8555 26.0692 24.2204 28.3954 27.606 28.3954C30.3599 28.3954 32.2242 27.4514 33.7422 25.2614V27.8231H39.5789V14.6746L39.5811 14.6757ZM27.8912 22.1852C27.8912 19.9222 29.2168 18.6218 32.3226 17.838L33.7444 17.4924V22.6998C32.999 24.1648 31.868 24.9072 30.3817 24.9072C28.9851 24.9072 27.8912 23.7113 27.8912 22.1852Z" fill="#003A30"/>
</svg>
